<svg xmlns="http://www.w3.org/2000/svg" width="568.2375" height="437.9704" viewBox="0 0 568.2375 437.9704"><defs><style>.a6bad3f6-b88c-48b9-9b10-683743ab7487,.accbfb13-8014-4450-b08c-c4ce091033b0{fill:#fff;}.a6bad3f6-b88c-48b9-9b10-683743ab7487{fill-rule:evenodd;}</style></defs><g id="e42f761d-6e4b-44ff-a9f5-1e5b8a149801" data-name="Layer 2"><g id="befc79c1-29ad-4f3e-a726-2a82aded7005" data-name="Layer 6"><path class="a6bad3f6-b88c-48b9-9b10-683743ab7487" d="M207.8313,188.5048c1.1176-66.4245,27.7109-117.8,48.941-148.4381C242.8837,23.8918,221.2554,6.35,190.2108,1.7107,152.9974-3.85,111.43,10.4437,89.876,39.3655c-32.1,43.0721-7.7684,102.07,7.4489,137.2421,37.32,86.2532,116.1064,152.2589,166.2773,177.9658C237.3821,319.2391,206.6024,261.9107,207.8313,188.5048Z"/><path class="accbfb13-8014-4450-b08c-c4ce091033b0" d="M117.25,265.0734c-1.1446-4.1447-3.8858-9.4515-5.6294-13.3684-4.69-6.8389-6.6445-10.8664-10.9531-11.5181-.526-.1274-5.0986-.3759-4.6854,5.8723q8.8013,32.577,17.6737,65.1348a13.9949,13.9949,0,0,0,4.2538,7.0868c4.3377,3.76,8.2015,4.6869,12.935,8.6058C131.5863,324.7421,122.6984,284.8021,117.25,265.0734Z"/><path class="accbfb13-8014-4450-b08c-c4ce091033b0" d="M167.9949,433.974c-8.8337-7.9907-16.6083-12.9784-35.4293-23.7584q-16.0945-9.2185-32.0873-18.614c-3.3578-1.9678-6.5522-4.214-9.8322-6.316a25.4993,25.4993,0,0,1-8.8761-9.61c-4.8432-9.1216-9.5385-18.3219-14.28-27.4977-1.0492-2.0305-2.0759-4.0743-3.05-6.1417A46.9284,46.9284,0,0,0,56.1955,329.6a32.3732,32.3732,0,0,1-5.64-9.0079c-2.9582-6.4657-5.7624-13.0032-8.7986-19.4315-6.5359-13.8371-14.8953-26.5736-23.8058-38.9664-.989-1.3753-1.9308-2.79-2.998-4.1024C9.0568,250.8414,3.6494,243.5348.3352,234.8743a12.1842,12.1842,0,0,1-.3342-3.5929c-.06-2.0274,2.5391-2.96,4.43-3.7488,6.5823-2.7463,15.6766,6.229,21.4922,11.1617,4.7094,3.9944,9.2747,8.1888,13.6228,12.5734,10.7079,10.7974,19.8414,22.91,28.7987,35.1562q4.4233,6.0474,8.9165,12.0436c3.0676,4.0913,3.0733,7.0284-.3535,11.2188-2.6192,3.2028-3.9979,6.77-3.1821,10.823a34.5626,34.5626,0,0,0,2.6641,7.3423,79.11,79.11,0,0,0,6.9686,9.6636c5.7956,7.02,12.24,12.6116,18.6628,19.0146a65.9314,65.9314,0,0,0,8.94,7.9376c2.4608,1.6914,7.0687-2.2631,4.7273-4.531-2.2665-2.1954-2.0426-1.8413-6.0736-5.3629-3.0245-2.6424-14.0733-14.29-17.0528-17.81-1.5435-1.8239-6.7844-6.5716-9.7554-12.2893-1.3314-2.5622-1.82-3.5674-1.9275-8.047-.0481-2.0059,2.5545-7.5308,9.4634-7.6446,1.8594-.0307,3.2449,1.0362,4.6783,2.2364,5.5158,4.6186,23.4084,18.7835,33.8489,25.9241,18.453,12.6206,39.7067,20.5583,59.5311,30.8935a152.9031,152.9031,0,0,1,13.893,7.9125c7.72,5.1175,13.787,11.9554,19.01,19.5644,9.7549,14.212,16.1351,22.0991,14.4071,28.5-3.0273,11.2124-29.4446,16.0995-64.1982,13.4543C170.7209,436.5,169.5071,435.3418,167.9949,433.974Z"/><path class="accbfb13-8014-4450-b08c-c4ce091033b0" d="M101.968,305.0642c-1.8857-9.029-3.69-18.0761-5.6878-27.08a320.0626,320.0626,0,0,0-13.7894-46.7084c-1.444-3.7184-2.0423-7.5417-4.4575-10.7552-2.4908-3.3141-3.97-5.6995-7.9888-7-2.8572-.9245-7.3127.1463-7.4488,3.1286-.9269,4.6848.1585,9.48.9056,14,1.8417,12.2929,5.1325,23.43,9.0686,35.7365,3.0836,9.6411,4.3964,21.3085,9.7968,29.8858a7.4718,7.4718,0,0,0,6.0626,3.9322,21.2181,21.2181,0,0,1,11.64,5.2329c.625.519,1.2645,1.02,2.25,1.8144C102.1533,306.2059,102.0861,305.63,101.968,305.0642Z"/><path class="accbfb13-8014-4450-b08c-c4ce091033b0" d="M153.3875,324.3392a190.9766,190.9766,0,0,0-8.5332-26.109c-4.2718-10.4806-3.414-10.7039-7.4687-15.0713-4.1929-3.8625-8.2635.6929-7.2418,5.4278.4722,1.85.9445,3.7338,1.4339,5.6131q4.7982,18.4259,9.604,36.85a8.3831,8.3831,0,0,0,2.4693,4.6227A92.0171,92.0171,0,0,0,158.9857,345.73C157.7857,341.07,154.6281,328.9879,153.3875,324.3392Z"/><path class="accbfb13-8014-4450-b08c-c4ce091033b0" d="M450.9872,265.0734c1.1446-4.1447,3.8858-9.4515,5.6294-13.3684,4.69-6.8389,6.6445-10.8664,10.9531-11.5181.526-.1274,5.0986-.3759,4.6854,5.8723q-8.8013,32.577-17.6737,65.1348a13.9949,13.9949,0,0,1-4.2538,7.0868c-4.3377,3.76-8.2015,4.6869-12.935,8.6058C436.6512,324.7421,445.5391,284.8021,450.9872,265.0734Z"/><path class="accbfb13-8014-4450-b08c-c4ce091033b0" d="M396.7247,437.267c-34.7536,2.6452-61.1709-2.2419-64.1982-13.4543-1.728-6.4,4.6522-14.2875,14.4071-28.5,5.2227-7.609,11.29-14.4469,19.01-19.5644a152.9031,152.9031,0,0,1,13.893-7.9125c19.8244-10.3352,41.0781-18.2729,59.5311-30.8935,10.4405-7.1406,28.3331-21.3055,33.8489-25.9241,1.4334-1.2,2.8189-2.2671,4.6783-2.2364,6.909.1138,9.5115,5.6387,9.4634,7.6446-.1073,4.48-.5961,5.4848-1.9275,8.047-2.9709,5.7177-8.2119,10.4654-9.7554,12.2893-2.9795,3.5207-14.0282,15.1679-17.0528,17.81-4.031,3.5216-3.8071,3.1675-6.0736,5.3629-2.3414,2.2679,2.2665,6.2224,4.7273,4.531a65.9314,65.9314,0,0,0,8.94-7.9376c6.4231-6.403,12.8672-11.9942,18.6628-19.0146a79.11,79.11,0,0,0,6.9686-9.6636,34.5626,34.5626,0,0,0,2.6641-7.3423c.8158-4.0527-.5629-7.62-3.1821-10.823-3.4268-4.19-3.4211-7.1275-.3535-11.2188q4.4946-5.9946,8.9165-12.0436c8.9574-12.2464,18.0909-24.3588,28.7987-35.1562,4.3481-4.3846,8.9134-8.579,13.6228-12.5734,5.8156-4.9327,14.91-13.908,21.4922-11.1617,1.891.7889,4.49,1.7214,4.43,3.7488a12.1842,12.1842,0,0,1-.3342,3.5929c-3.3142,8.66-8.7216,15.9671-14.6184,23.2179-1.0672,1.3122-2.009,2.7271-2.998,4.1024-8.91,12.3928-17.27,25.1293-23.8058,38.9664-3.0362,6.4283-5.84,12.9658-8.7986,19.4315A32.3732,32.3732,0,0,1,512.042,329.6a46.9284,46.9284,0,0,0-8.2448,12.4359c-.9742,2.0674-2.0009,4.1112-3.05,6.1417-4.7411,9.1758-9.4364,18.3761-14.28,27.4977a25.4985,25.4985,0,0,1-8.8761,9.61c-3.28,2.102-6.4744,4.3482-9.8322,6.316q-16.0022,9.3781-32.0873,18.614c-18.821,10.78-26.5956,15.7677-35.4293,23.7584C398.7305,435.3418,397.5166,436.5,396.7247,437.267Z"/><path class="accbfb13-8014-4450-b08c-c4ce091033b0" d="M466.27,305.0642c1.8857-9.029,3.69-18.0761,5.6878-27.08a320.0506,320.0506,0,0,1,13.79-46.7084c1.4439-3.7184,2.0422-7.5417,4.4574-10.7552,2.4908-3.3141,3.97-5.6995,7.9888-7,2.8572-.9245,7.3127.1463,7.4488,3.1286.9269,4.6848-.1585,9.48-.9056,14-1.8417,12.2929-5.1325,23.43-9.0686,35.7365-3.0836,9.6411-4.3964,21.3085-9.7968,29.8858a7.4718,7.4718,0,0,1-6.0626,3.9322,21.2181,21.2181,0,0,0-11.64,5.2329c-.625.519-1.2645,1.02-2.25,1.8144C466.0843,306.2059,466.1514,305.63,466.27,305.0642Z"/><path class="accbfb13-8014-4450-b08c-c4ce091033b0" d="M414.85,324.3392a190.9766,190.9766,0,0,1,8.5332-26.109c4.2718-10.4806,3.414-10.7039,7.4687-15.0713,4.1929-3.8625,8.2635.6929,7.2418,5.4278-.4722,1.85-.9445,3.7338-1.4339,5.6131q-4.7982,18.4259-9.604,36.85a8.3831,8.3831,0,0,1-2.4693,4.6227A92.0171,92.0171,0,0,1,409.2518,345.73C410.4518,341.07,413.6094,328.9879,414.85,324.3392Z"/><path class="a6bad3f6-b88c-48b9-9b10-683743ab7487" d="M484.9772,64.797c-4.2537-16.8931-10.8348-27.5779-17.8111-35.3458C433.6155-7.9051,371.3417.4441,363.1374,1.5823c-38.8626,5.39-67.6219,26.3415-87.4063,47.1989-19.934,27.922-46.2885,76.6282-47.3539,140.0687-1.5189,90.3769,49.7405,154.5652,73.3412,179.2369,21.2622-11.9474,75.5724-48.0983,125.335-119.391C450.7364,214.766,503.2769,137.4741,484.9772,64.797Z"/></g></g></svg>